<svg width="171" height="46" viewBox="0 0 171 46" fill="none" xmlns="http://www.w3.org/2000/svg">
<path d="M6.088 23.288C4.952 23.288 3.904 23.08 2.944 22.664C2 22.232 1.224 21.624 0.616 20.84L2.776 18.248C3.688 19.48 4.728 20.096 5.896 20.096C7.48 20.096 8.272 19.168 8.272 17.312V9.32H2.368V6.2H12.136V17.096C12.136 19.16 11.624 20.712 10.6 21.752C9.576 22.776 8.072 23.288 6.088 23.288ZM28.3604 16.592C28.3604 16.64 28.3364 16.976 28.2884 17.6H18.5204C18.6964 18.4 19.1124 19.032 19.7684 19.496C20.4244 19.96 21.2404 20.192 22.2164 20.192C22.8884 20.192 23.4804 20.096 23.9924 19.904C24.5204 19.696 25.0084 19.376 25.4564 18.944L27.4484 21.104C26.2324 22.496 24.4564 23.192 22.1204 23.192C20.6644 23.192 19.3764 22.912 18.2564 22.352C17.1364 21.776 16.2724 20.984 15.6644 19.976C15.0564 18.968 14.7524 17.824 14.7524 16.544C14.7524 15.28 15.0484 14.144 15.6404 13.136C16.2484 12.112 17.0724 11.32 18.1124 10.76C19.1684 10.184 20.3444 9.896 21.6404 9.896C22.9044 9.896 24.0484 10.168 25.0724 10.712C26.0964 11.256 26.8964 12.04 27.4724 13.064C28.0644 14.072 28.3604 15.248 28.3604 16.592ZM21.6644 12.728C20.8164 12.728 20.1044 12.968 19.5284 13.448C18.9524 13.928 18.6004 14.584 18.4724 15.416H24.8324C24.7044 14.6 24.3524 13.952 23.7764 13.472C23.2004 12.976 22.4964 12.728 21.6644 12.728ZM34.957 10.376H38.269V13.256H35.053V23H31.309V13.256H29.317V10.376H31.309V9.8C31.309 8.328 31.741 7.16 32.605 6.296C33.485 5.432 34.717 5 36.301 5C36.861 5 37.389 5.064 37.885 5.192C38.397 5.304 38.821 5.472 39.157 5.696L38.173 8.408C37.741 8.104 37.237 7.952 36.661 7.952C35.525 7.952 34.957 8.576 34.957 9.824V10.376ZM44.2383 10.376H47.5503V13.256H44.3343V23H40.5903V13.256H38.5983V10.376H40.5903V9.8C40.5903 8.328 41.0223 7.16 41.8863 6.296C42.7663 5.432 43.9983 5 45.5823 5C46.1423 5 46.6703 5.064 47.1663 5.192C47.6783 5.304 48.1023 5.472 48.4383 5.696L47.4543 8.408C47.0223 8.104 46.5183 7.952 45.9423 7.952C44.8063 7.952 44.2383 8.576 44.2383 9.824V10.376ZM54.9134 11.792C55.3614 11.168 55.9614 10.696 56.7134 10.376C57.4814 10.056 58.3614 9.896 59.3534 9.896V13.352C58.9374 13.32 58.6574 13.304 58.5134 13.304C57.4414 13.304 56.6014 13.608 55.9934 14.216C55.3854 14.808 55.0814 15.704 55.0814 16.904V23H51.3374V10.088H54.9134V11.792ZM74.1104 16.592C74.1104 16.64 74.0864 16.976 74.0384 17.6H64.2704C64.4464 18.4 64.8624 19.032 65.5184 19.496C66.1744 19.96 66.9904 20.192 67.9664 20.192C68.6384 20.192 69.2304 20.096 69.7424 19.904C70.2704 19.696 70.7584 19.376 71.2064 18.944L73.1984 21.104C71.9824 22.496 70.2064 23.192 67.8704 23.192C66.4144 23.192 65.1264 22.912 64.0064 22.352C62.8864 21.776 62.0224 20.984 61.4144 19.976C60.8064 18.968 60.5024 17.824 60.5024 16.544C60.5024 15.28 60.7984 14.144 61.3904 13.136C61.9984 12.112 62.8224 11.32 63.8624 10.76C64.9184 10.184 66.0944 9.896 67.3904 9.896C68.6544 9.896 69.7984 10.168 70.8224 10.712C71.8464 11.256 72.6464 12.04 73.2224 13.064C73.8144 14.072 74.1104 15.248 74.1104 16.592ZM67.4144 12.728C66.5664 12.728 65.8544 12.968 65.2784 13.448C64.7024 13.928 64.3504 14.584 64.2224 15.416H70.5824C70.4544 14.6 70.1024 13.952 69.5264 13.472C68.9504 12.976 68.2464 12.728 67.4144 12.728ZM89.1846 10.088L83.3526 23.792C82.7606 25.28 82.0246 26.328 81.1446 26.936C80.2806 27.544 79.2326 27.848 78.0006 27.848C77.3286 27.848 76.6646 27.744 76.0086 27.536C75.3526 27.328 74.8166 27.04 74.4006 26.672L75.7686 24.008C76.0566 24.264 76.3846 24.464 76.7526 24.608C77.1366 24.752 77.5126 24.824 77.8806 24.824C78.3926 24.824 78.8086 24.696 79.1286 24.44C79.4486 24.2 79.7366 23.792 79.9926 23.216L80.0406 23.096L74.4486 10.088H78.3126L81.9366 18.848L85.5846 10.088H89.1846ZM97.7733 6.2H105.405C107.229 6.2 108.837 6.552 110.229 7.256C111.637 7.944 112.725 8.92 113.493 10.184C114.277 11.448 114.669 12.92 114.669 14.6C114.669 16.28 114.277 17.752 113.493 19.016C112.725 20.28 111.637 21.264 110.229 21.968C108.837 22.656 107.229 23 105.405 23H97.7733V6.2ZM105.213 19.808C106.893 19.808 108.229 19.344 109.221 18.416C110.229 17.472 110.733 16.2 110.733 14.6C110.733 13 110.229 11.736 109.221 10.808C108.229 9.864 106.893 9.392 105.213 9.392H101.661V19.808H105.213ZM122.545 9.896C124.545 9.896 126.081 10.376 127.153 11.336C128.225 12.28 128.761 13.712 128.761 15.632V23H125.257V21.392C124.553 22.592 123.241 23.192 121.321 23.192C120.329 23.192 119.465 23.024 118.729 22.688C118.009 22.352 117.457 21.888 117.073 21.296C116.689 20.704 116.497 20.032 116.497 19.28C116.497 18.08 116.945 17.136 117.841 16.448C118.753 15.76 120.153 15.416 122.041 15.416H125.017C125.017 14.6 124.769 13.976 124.273 13.544C123.777 13.096 123.033 12.872 122.041 12.872C121.353 12.872 120.673 12.984 120.001 13.208C119.345 13.416 118.785 13.704 118.321 14.072L116.977 11.456C117.681 10.96 118.521 10.576 119.497 10.304C120.489 10.032 121.505 9.896 122.545 9.896ZM122.257 20.672C122.897 20.672 123.465 20.528 123.961 20.24C124.457 19.936 124.809 19.496 125.017 18.92V17.6H122.449C120.913 17.6 120.145 18.104 120.145 19.112C120.145 19.592 120.329 19.976 120.697 20.264C121.081 20.536 121.601 20.672 122.257 20.672ZM144.732 10.088L139.284 23H135.42L129.995 10.088H133.86L137.436 18.872L141.132 10.088H144.732ZM146.259 10.088H150.003V23H146.259V10.088ZM148.131 8.288C147.443 8.288 146.883 8.088 146.451 7.688C146.019 7.288 145.803 6.792 145.803 6.2C145.803 5.608 146.019 5.112 146.451 4.712C146.883 4.312 147.443 4.112 148.131 4.112C148.819 4.112 149.379 4.304 149.811 4.688C150.243 5.072 150.459 5.552 150.459 6.128C150.459 6.752 150.243 7.272 149.811 7.688C149.379 8.088 148.819 8.288 148.131 8.288ZM157.822 23.192C156.75 23.192 155.702 23.064 154.678 22.808C153.654 22.536 152.838 22.2 152.23 21.8L153.478 19.112C154.054 19.48 154.75 19.784 155.566 20.024C156.382 20.248 157.182 20.36 157.966 20.36C159.55 20.36 160.342 19.968 160.342 19.184C160.342 18.816 160.126 18.552 159.694 18.392C159.262 18.232 158.598 18.096 157.702 17.984C156.646 17.824 155.774 17.64 155.086 17.432C154.398 17.224 153.798 16.856 153.286 16.328C152.79 15.8 152.542 15.048 152.542 14.072C152.542 13.256 152.774 12.536 153.238 11.912C153.718 11.272 154.406 10.776 155.302 10.424C156.214 10.072 157.286 9.896 158.518 9.896C159.43 9.896 160.334 10 161.23 10.208C162.142 10.4 162.894 10.672 163.486 11.024L162.238 13.688C161.102 13.048 159.862 12.728 158.518 12.728C157.718 12.728 157.118 12.84 156.718 13.064C156.318 13.288 156.118 13.576 156.118 13.928C156.118 14.328 156.334 14.608 156.766 14.768C157.198 14.928 157.886 15.08 158.83 15.224C159.886 15.4 160.75 15.592 161.422 15.8C162.094 15.992 162.678 16.352 163.174 16.88C163.67 17.408 163.918 18.144 163.918 19.088C163.918 19.888 163.678 20.6 163.198 21.224C162.718 21.848 162.014 22.336 161.086 22.688C160.174 23.024 159.086 23.192 157.822 23.192Z" fill="black"/>
<path d="M3.632 34.096V37.946H8.7V38.842H3.632V43H2.596V33.2H9.316V34.096H3.632ZM13.0407 37.078C13.274 36.5833 13.6193 36.21 14.0767 35.958C14.5433 35.706 15.1173 35.58 15.7987 35.58V36.546L15.5607 36.532C14.786 36.532 14.1793 36.77 13.7407 37.246C13.302 37.722 13.0827 38.3893 13.0827 39.248V43H12.0887V35.636H13.0407V37.078ZM21.5201 43.07C20.8107 43.07 20.1714 42.9113 19.6021 42.594C19.0327 42.2673 18.5847 41.8193 18.2581 41.25C17.9314 40.6807 17.7681 40.0367 17.7681 39.318C17.7681 38.5993 17.9314 37.9553 18.2581 37.386C18.5847 36.8167 19.0327 36.3733 19.6021 36.056C20.1714 35.7387 20.8107 35.58 21.5201 35.58C22.2294 35.58 22.8687 35.7387 23.4381 36.056C24.0074 36.3733 24.4507 36.8167 24.7681 37.386C25.0947 37.9553 25.2581 38.5993 25.2581 39.318C25.2581 40.0367 25.0947 40.6807 24.7681 41.25C24.4507 41.8193 24.0074 42.2673 23.4381 42.594C22.8687 42.9113 22.2294 43.07 21.5201 43.07ZM21.5201 42.188C22.0427 42.188 22.5094 42.0713 22.9201 41.838C23.3401 41.5953 23.6667 41.2547 23.9001 40.816C24.1334 40.3773 24.2501 39.878 24.2501 39.318C24.2501 38.758 24.1334 38.2587 23.9001 37.82C23.6667 37.3813 23.3401 37.0453 22.9201 36.812C22.5094 36.5693 22.0427 36.448 21.5201 36.448C20.9974 36.448 20.5261 36.5693 20.1061 36.812C19.6954 37.0453 19.3687 37.3813 19.1261 37.82C18.8927 38.2587 18.7761 38.758 18.7761 39.318C18.7761 39.878 18.8927 40.3773 19.1261 40.816C19.3687 41.2547 19.6954 41.5953 20.1061 41.838C20.5261 42.0713 20.9974 42.188 21.5201 42.188ZM32.0194 35.58C32.9434 35.58 33.6761 35.8507 34.2174 36.392C34.7681 36.924 35.0434 37.7033 35.0434 38.73V43H34.0494V38.828C34.0494 38.0627 33.8581 37.4793 33.4754 37.078C33.0927 36.6767 32.5467 36.476 31.8374 36.476C31.0441 36.476 30.4141 36.714 29.9474 37.19C29.4901 37.6567 29.2614 38.3053 29.2614 39.136V43H28.2674V35.636H29.2194V36.994C29.4901 36.546 29.8634 36.2007 30.3394 35.958C30.8247 35.706 31.3847 35.58 32.0194 35.58ZM42.6 42.552C42.4133 42.72 42.18 42.8507 41.9 42.944C41.6293 43.028 41.3447 43.07 41.046 43.07C40.3553 43.07 39.8233 42.8833 39.45 42.51C39.0767 42.1367 38.89 41.6093 38.89 40.928V36.476H37.574V35.636H38.89V34.026H39.884V35.636H42.124V36.476H39.884V40.872C39.884 41.3107 39.9913 41.6467 40.206 41.88C40.43 42.104 40.7473 42.216 41.158 42.216C41.3633 42.216 41.5593 42.1833 41.746 42.118C41.942 42.0527 42.11 41.9593 42.25 41.838L42.6 42.552ZM57.1736 42.104V43H50.2436V33.2H56.9636V34.096H51.2796V37.582H56.3476V38.464H51.2796V42.104H57.1736ZM64.1308 35.58C65.0548 35.58 65.7875 35.8507 66.3288 36.392C66.8795 36.924 67.1548 37.7033 67.1548 38.73V43H66.1608V38.828C66.1608 38.0627 65.9695 37.4793 65.5868 37.078C65.2041 36.6767 64.6581 36.476 63.9488 36.476C63.1555 36.476 62.5255 36.714 62.0588 37.19C61.6015 37.6567 61.3728 38.3053 61.3728 39.136V43H60.3788V35.636H61.3308V36.994C61.6015 36.546 61.9748 36.2007 62.4508 35.958C62.9361 35.706 63.4961 35.58 64.1308 35.58ZM77.5808 32.612V43H76.6288V41.544C76.3301 42.0387 75.9334 42.4167 75.4388 42.678C74.9534 42.9393 74.4028 43.07 73.7868 43.07C73.0961 43.07 72.4708 42.9113 71.9108 42.594C71.3508 42.2767 70.9121 41.8333 70.5948 41.264C70.2774 40.6947 70.1188 40.046 70.1188 39.318C70.1188 38.59 70.2774 37.9413 70.5948 37.372C70.9121 36.8027 71.3508 36.364 71.9108 36.056C72.4708 35.7387 73.0961 35.58 73.7868 35.58C74.3841 35.58 74.9208 35.706 75.3968 35.958C75.8821 36.2007 76.2788 36.56 76.5868 37.036V32.612H77.5808ZM73.8708 42.188C74.3841 42.188 74.8461 42.0713 75.2568 41.838C75.6768 41.5953 76.0034 41.2547 76.2368 40.816C76.4794 40.3773 76.6008 39.878 76.6008 39.318C76.6008 38.758 76.4794 38.2587 76.2368 37.82C76.0034 37.3813 75.6768 37.0453 75.2568 36.812C74.8461 36.5693 74.3841 36.448 73.8708 36.448C73.3481 36.448 72.8768 36.5693 72.4568 36.812C72.0461 37.0453 71.7194 37.3813 71.4768 37.82C71.2434 38.2587 71.1268 38.758 71.1268 39.318C71.1268 39.878 71.2434 40.3773 71.4768 40.816C71.7194 41.2547 72.0461 41.5953 72.4568 41.838C72.8768 42.0713 73.3481 42.188 73.8708 42.188ZM86.1831 33.2H90.1731C91.2091 33.2 92.1238 33.41 92.9171 33.83C93.7104 34.2407 94.3264 34.8193 94.7651 35.566C95.2038 36.3033 95.4231 37.148 95.4231 38.1C95.4231 39.052 95.2038 39.9013 94.7651 40.648C94.3264 41.3853 93.7104 41.964 92.9171 42.384C92.1238 42.7947 91.2091 43 90.1731 43H86.1831V33.2ZM90.1171 42.104C90.9758 42.104 91.7271 41.936 92.3711 41.6C93.0151 41.2547 93.5144 40.7833 93.8691 40.186C94.2238 39.5793 94.4011 38.884 94.4011 38.1C94.4011 37.316 94.2238 36.6253 93.8691 36.028C93.5144 35.4213 93.0151 34.95 92.3711 34.614C91.7271 34.2687 90.9758 34.096 90.1171 34.096H87.2191V42.104H90.1171ZM104.932 39.626H98.7715C98.8275 40.3913 99.1215 41.012 99.6535 41.488C100.186 41.9547 100.858 42.188 101.67 42.188C102.127 42.188 102.547 42.1087 102.93 41.95C103.312 41.782 103.644 41.5393 103.924 41.222L104.484 41.866C104.157 42.258 103.746 42.5567 103.252 42.762C102.766 42.9673 102.23 43.07 101.642 43.07C100.886 43.07 100.214 42.9113 99.6255 42.594C99.0468 42.2673 98.5942 41.8193 98.2675 41.25C97.9408 40.6807 97.7775 40.0367 97.7775 39.318C97.7775 38.5993 97.9315 37.9553 98.2395 37.386C98.5568 36.8167 98.9862 36.3733 99.5275 36.056C100.078 35.7387 100.694 35.58 101.376 35.58C102.057 35.58 102.668 35.7387 103.21 36.056C103.751 36.3733 104.176 36.8167 104.484 37.386C104.792 37.946 104.946 38.59 104.946 39.318L104.932 39.626ZM101.376 36.434C100.666 36.434 100.069 36.6627 99.5835 37.12C99.1075 37.568 98.8368 38.156 98.7715 38.884H103.994C103.928 38.156 103.653 37.568 103.168 37.12C102.692 36.6627 102.094 36.434 101.376 36.434ZM114 35.636L110.724 43H109.702L106.44 35.636H107.476L110.234 41.908L113.02 35.636H114ZM122.587 39.626H116.427C116.483 40.3913 116.777 41.012 117.309 41.488C117.841 41.9547 118.513 42.188 119.325 42.188C119.782 42.188 120.202 42.1087 120.585 41.95C120.967 41.782 121.299 41.5393 121.579 41.222L122.139 41.866C121.812 42.258 121.401 42.5567 120.907 42.762C120.421 42.9673 119.885 43.07 119.297 43.07C118.541 43.07 117.869 42.9113 117.281 42.594C116.702 42.2673 116.249 41.8193 115.923 41.25C115.596 40.6807 115.433 40.0367 115.433 39.318C115.433 38.5993 115.587 37.9553 115.895 37.386C116.212 36.8167 116.641 36.3733 117.183 36.056C117.733 35.7387 118.349 35.58 119.031 35.58C119.712 35.58 120.323 35.7387 120.865 36.056C121.406 36.3733 121.831 36.8167 122.139 37.386C122.447 37.946 122.601 38.59 122.601 39.318L122.587 39.626ZM119.031 36.434C118.321 36.434 117.724 36.6627 117.239 37.12C116.763 37.568 116.492 38.156 116.427 38.884H121.649C121.583 38.156 121.308 37.568 120.823 37.12C120.347 36.6627 119.749 36.434 119.031 36.434ZM125.604 32.612H126.598V43H125.604V32.612ZM133.354 43.07C132.644 43.07 132.005 42.9113 131.436 42.594C130.866 42.2673 130.418 41.8193 130.092 41.25C129.765 40.6807 129.602 40.0367 129.602 39.318C129.602 38.5993 129.765 37.9553 130.092 37.386C130.418 36.8167 130.866 36.3733 131.436 36.056C132.005 35.7387 132.644 35.58 133.354 35.58C134.063 35.58 134.702 35.7387 135.272 36.056C135.841 36.3733 136.284 36.8167 136.602 37.386C136.928 37.9553 137.092 38.5993 137.092 39.318C137.092 40.0367 136.928 40.6807 136.602 41.25C136.284 41.8193 135.841 42.2673 135.272 42.594C134.702 42.9113 134.063 43.07 133.354 43.07ZM133.354 42.188C133.876 42.188 134.343 42.0713 134.754 41.838C135.174 41.5953 135.5 41.2547 135.734 40.816C135.967 40.3773 136.084 39.878 136.084 39.318C136.084 38.758 135.967 38.2587 135.734 37.82C135.5 37.3813 135.174 37.0453 134.754 36.812C134.343 36.5693 133.876 36.448 133.354 36.448C132.831 36.448 132.36 36.5693 131.94 36.812C131.529 37.0453 131.202 37.3813 130.96 37.82C130.726 38.2587 130.61 38.758 130.61 39.318C130.61 39.878 130.726 40.3773 130.96 40.816C131.202 41.2547 131.529 41.5953 131.94 41.838C132.36 42.0713 132.831 42.188 133.354 42.188ZM143.895 35.58C144.586 35.58 145.211 35.7387 145.771 36.056C146.331 36.364 146.77 36.8027 147.087 37.372C147.404 37.9413 147.563 38.59 147.563 39.318C147.563 40.0553 147.404 40.7087 147.087 41.278C146.77 41.8473 146.331 42.2907 145.771 42.608C145.22 42.916 144.595 43.07 143.895 43.07C143.298 43.07 142.756 42.9487 142.271 42.706C141.795 42.454 141.403 42.09 141.095 41.614V45.716H140.101V35.636H141.053V37.092C141.352 36.6067 141.744 36.2333 142.229 35.972C142.724 35.7107 143.279 35.58 143.895 35.58ZM143.825 42.188C144.338 42.188 144.805 42.0713 145.225 41.838C145.645 41.5953 145.972 41.2547 146.205 40.816C146.448 40.3773 146.569 39.878 146.569 39.318C146.569 38.758 146.448 38.2633 146.205 37.834C145.972 37.3953 145.645 37.0547 145.225 36.812C144.805 36.5693 144.338 36.448 143.825 36.448C143.302 36.448 142.831 36.5693 142.411 36.812C142 37.0547 141.674 37.3953 141.431 37.834C141.198 38.2633 141.081 38.758 141.081 39.318C141.081 39.878 141.198 40.3773 141.431 40.816C141.674 41.2547 142 41.5953 142.411 41.838C142.831 42.0713 143.302 42.188 143.825 42.188ZM156.981 39.626H150.821C150.877 40.3913 151.171 41.012 151.703 41.488C152.235 41.9547 152.907 42.188 153.719 42.188C154.177 42.188 154.597 42.1087 154.979 41.95C155.362 41.782 155.693 41.5393 155.973 41.222L156.533 41.866C156.207 42.258 155.796 42.5567 155.301 42.762C154.816 42.9673 154.279 43.07 153.691 43.07C152.935 43.07 152.263 42.9113 151.675 42.594C151.097 42.2673 150.644 41.8193 150.317 41.25C149.991 40.6807 149.827 40.0367 149.827 39.318C149.827 38.5993 149.981 37.9553 150.289 37.386C150.607 36.8167 151.036 36.3733 151.577 36.056C152.128 35.7387 152.744 35.58 153.425 35.58C154.107 35.58 154.718 35.7387 155.259 36.056C155.801 36.3733 156.225 36.8167 156.533 37.386C156.841 37.946 156.995 38.59 156.995 39.318L156.981 39.626ZM153.425 36.434C152.716 36.434 152.119 36.6627 151.633 37.12C151.157 37.568 150.887 38.156 150.821 38.884H156.043C155.978 38.156 155.703 37.568 155.217 37.12C154.741 36.6627 154.144 36.434 153.425 36.434ZM160.951 37.078C161.184 36.5833 161.529 36.21 161.987 35.958C162.453 35.706 163.027 35.58 163.709 35.58V36.546L163.471 36.532C162.696 36.532 162.089 36.77 161.651 37.246C161.212 37.722 160.993 38.3893 160.993 39.248V43H159.999V35.636H160.951V37.078Z" fill="black"/>
</svg>
