<svg width="200" height="200" viewBox="0 0 200 200" fill="none" xmlns="http://www.w3.org/2000/svg">
<circle cx="100" cy="100" r="97" stroke="black" stroke-width="6"/>
<path d="M61.12 129.48C57.92 129.48 54.96 128.787 52.24 127.4C49.52 126.013 47.3067 124.04 45.6 121.48L49.12 117.48C52.2133 122.067 56.24 124.36 61.2 124.36C68.1333 124.36 71.6 120.253 71.6 112.04V78.12H51.12V73H77.44V111.8C77.44 117.667 76.0533 122.093 73.28 125.08C70.56 128.013 66.5067 129.48 61.12 129.48ZM95.1981 73H117.998C123.918 73 129.145 74.2 133.678 76.6C138.211 78.9467 141.731 82.2533 144.238 86.52C146.745 90.7333 147.998 95.56 147.998 101C147.998 106.44 146.745 111.293 144.238 115.56C141.731 119.773 138.211 123.08 133.678 125.48C129.145 127.827 123.918 129 117.998 129H95.1981V73ZM117.678 123.88C122.585 123.88 126.878 122.92 130.558 121C134.238 119.027 137.091 116.333 139.118 112.92C141.145 109.453 142.158 105.48 142.158 101C142.158 96.52 141.145 92.5733 139.118 89.16C137.091 85.6933 134.238 83 130.558 81.08C126.878 79.1067 122.585 78.12 117.678 78.12H101.118V123.88H117.678Z" fill="black"/>
</svg>
